# xmcd CD database file
#
# Track frame offsets:
#	150
#	16558
#	46228
#	70582
#	85638
#	105913
#	134566
#	157423
#	181997
#
# Disc length: 3075 seconds
#
# Revision: 0
# Processed by: cddbd v1.5.2PL0 Copyright (c) Steve Scherf et al.
# Submitted via: CDex 1.51
#
DISCID=660c0109
DTITLE=Aruan Ortiz - Aruan Ortiz Trio
DYEAR=2005
DGENRE=Jazz
TTITLE0=invisible
TTITLE1=pasos perdidos
TTITLE2=mompouana
TTITLE3=burbjas
TTITLE4=blanco e negro
TTITLE5=isosteles
TTITLE6=recapitulacion
TTITLE7=Paco Manzana
TTITLE8=se vale sonar
EXTD=YEAR: 2005
EXTT0=
EXTT1=
EXTT2=
EXTT3=
EXTT4=
EXTT5=
EXTT6=
EXTT7=
EXTT8=
PLAYORDER=
